<svg xmlns="http://www.w3.org/2000/svg" xmlns:xlink="http://www.w3.org/1999/xlink" width="39" height="31"><defs><path id="a" d="M707.53 8128c3.1-.05 4.75 1.05 6.32 2.46 1.34-.11 3.08-.84 4.1-1.35l1-.54a7.84 7.84 0 0 1-2.6 3.68c-.27.2-.54.48-.88.61v.02c1.74-.02 3.17-.78 4.53-1.2v.02a12.74 12.74 0 0 1-2.71 3.05l-1.25.97c.02 1.8-.03 3.52-.37 5.03-2 8.8-7.3 14.77-15.68 17.33-3 .92-7.87 1.3-11.32.46a29.55 29.55 0 0 1-4.7-1.5c-.8-.35-1.55-.73-2.27-1.15l-.7-.42c.78.02 1.69.23 2.56.1.78-.13 1.56-.1 2.28-.25 1.81-.4 3.42-.9 4.8-1.7.67-.39 1.7-.84 2.17-1.4-.9.02-1.71-.18-2.38-.41-2.59-.9-4.1-2.54-5.08-5.02.79.09 3.05.29 3.57-.15a5.91 5.91 0 0 1-2.61-1.03 7.5 7.5 0 0 1-3.77-6.7l.82.37a8.9 8.9 0 0 0 1.68.46c.26.06.8.2 1.1.1h-.05c-.4-.46-1.05-.77-1.46-1.26-1.34-1.63-2.59-4.13-1.8-7.11.2-.76.52-1.42.86-2.04l.04.02c.16.32.5.55.72.82.69.83 1.53 1.57 2.39 2.23a23.78 23.78 0 0 0 9.78 4.63c1.07.26 2.3.46 3.59.46a7.13 7.13 0 0 1 .04-3.68 7.77 7.77 0 0 1 4.52-5.26 9.8 9.8 0 0 1 1.78-.54l.98-.11z"/></defs><use fill="#ff0036" xlink:href="#a" transform="translate(-681 -8128)"/></svg>